<?xml version="1.0" standalone="no"?>
<!DOCTYPE svg PUBLIC "-//W3C//DTD SVG 20010904//EN"
 "http://www.w3.org/TR/2001/REC-SVG-20010904/DTD/svg10.dtd">
<svg version="1.0" xmlns="http://www.w3.org/2000/svg"
 width="377.000000pt" height="377.000000pt" viewBox="0 0 377.000000 377.000000"
 preserveAspectRatio="xMidYMid meet">
<metadata>
Created by potrace 1.11, written by Peter Selinger 2001-2013
</metadata>
<g transform="translate(0.000000,377.000000) scale(0.100000,-0.100000)"
fill="#000000" stroke="none">
<path d="M0 1885 l0 -1885 463 0 462 0 507 507 507 508 3 75 3 75 75 3 c41 2
80 8 87 14 10 8 13 67 13 254 l0 243 -92 3 -93 3 0 75 0 75 275 0 275 0 0 -75
0 -75 -92 -3 -93 -3 0 -152 0 -152 191 190 c105 105 197 204 206 220 8 17 25
40 36 53 l20 22 -20 23 c-41 45 -47 69 -51 222 -2 83 -8 158 -13 167 -5 10
-27 23 -50 29 l-40 12 3 91 3 91 56 3 c66 3 159 -25 197 -60 56 -53 66 -90 70
-270 2 -93 7 -168 11 -168 3 0 196 190 429 423 l422 422 0 463 0 462 -1885 0
-1885 0 0 -1885z m1685 811 c84 -36 130 -111 141 -235 l7 -71 -90 0 -90 0 -6
49 c-3 28 -13 63 -22 80 -32 63 -140 63 -187 1 -27 -37 -41 -148 -35 -270 9
-166 42 -220 137 -220 54 0 97 40 106 99 l7 41 89 0 90 0 -7 -57 c-7 -62 -35
-135 -63 -166 -9 -11 -42 -31 -72 -45 -44 -20 -71 -25 -140 -26 -116 -1 -173
17 -231 73 -38 37 -51 60 -68 115 -28 90 -37 245 -22 361 29 218 122 301 326
292 54 -3 106 -11 130 -21z m407 -148 l3 -163 112 -3 113 -3 2 163 3 163 85 0
85 0 0 -410 0 -410 -85 0 -85 0 -3 173 -2 172 -117 0 -116 0 7 -170 8 -170
-98 0 -97 0 6 83 c4 45 7 229 7 410 l0 327 85 0 85 0 2 -162z m-942 -138 c0
-94 -1 -100 -21 -100 -63 0 -79 -42 -79 -211 0 -137 -7 -169 -47 -210 -20 -22
-22 -29 -10 -35 7 -5 22 -22 33 -38 16 -25 20 -55 24 -189 l5 -159 28 -24 c15
-13 37 -24 48 -24 17 0 19 -8 19 -96 l0 -96 -77 4 c-98 4 -159 32 -199 90 -29
41 -29 43 -34 221 l-5 179 -28 24 c-16 13 -37 24 -48 24 -17 0 -19 8 -19 94
l0 94 29 7 c60 13 65 30 71 219 4 148 8 176 26 211 29 55 94 94 175 104 120
16 109 25 109 -89z m519 -586 c65 -19 124 -71 146 -128 9 -24 17 -74 18 -112
l2 -69 -86 -3 -86 -3 -7 52 c-13 97 -52 133 -131 121 -48 -7 -66 -21 -88 -70
-18 -41 -21 -66 -21 -187 0 -81 5 -158 12 -182 37 -127 205 -125 226 4 l7 41
80 6 c43 4 84 4 90 0 8 -4 9 -26 5 -65 -13 -110 -50 -167 -135 -207 -49 -23
-68 -26 -156 -26 -112 0 -148 11 -209 64 -49 44 -75 97 -92 189 -39 221 6 465
99 535 72 54 218 73 326 40z"/>
</g>
</svg>
